<svg xmlns="http://www.w3.org/2000/svg" width="67.1" height="67.3" viewBox="0 0 67.1 67.3">
  <g id="Groupe_21477" data-name="Groupe 21477" transform="translate(-569.8 -402.2)">
    <path id="Tracé_19230" data-name="Tracé 19230" d="M602.9,402.2h32.6a3.16,3.16,0,0,1,1.4,1.4v16.9a2.549,2.549,0,0,1-2.6,1.5H621.1v3.9h9.6a1.973,1.973,0,0,1,2.2,1.9c.8,4.9,1.6,9.8,2.5,14.7.4,2.3.8,4.7,1.2,7H570.1c.5-2.9.9-5.7,1.4-8.5.7-4.5,1.5-8.9,2.2-13.4.2-1,.8-1.7,1.7-1.7,1.4-.1,2.8,0,4.3,0v15.7c-1.3.3-2,1.1-1.9,2.2a2,2,0,0,0,2.1,1.8h19.5a1.892,1.892,0,0,0,2-1.7,1.949,1.949,0,0,0-1.5-2.1c-.1,0-.2-.1-.4-.1V426h17.6v-3.9H604a2.324,2.324,0,0,1-2.6-2.6c.1-4.9.1-9.7,0-14.6A2.773,2.773,0,0,1,602.9,402.2Zm6.5,31.7h-2a1.988,1.988,0,0,0-2,1.9,1.923,1.923,0,0,0,1.9,2h4a1.923,1.923,0,0,0,1.9-2,2.074,2.074,0,0,0-2-2A10.283,10.283,0,0,1,609.4,433.9Zm11.7,3.9h2a2,2,0,0,0,0-4h-3.9a2.006,2.006,0,0,0-2,2,2.074,2.074,0,0,0,2,2A12.033,12.033,0,0,0,621.1,437.8Zm-11.8,7.9h2a1.923,1.923,0,0,0,1.9-2,2,2,0,0,0-2-2h-3.9a1.988,1.988,0,0,0-2,1.9,1.944,1.944,0,0,0,2,2A14.083,14.083,0,0,0,609.3,445.7Zm11.8-3.9h-2a1.988,1.988,0,0,0-2,1.9,1.923,1.923,0,0,0,1.9,2h4a1.923,1.923,0,0,0,1.9-2,2.074,2.074,0,0,0-2-2A9.722,9.722,0,0,1,621.1,441.8Zm0-29.6a1.923,1.923,0,0,0-2-1.9,2,2,0,0,0,0,4A2.09,2.09,0,0,0,621.1,412.2Zm5.9,2a2.074,2.074,0,0,0,2-2,1.951,1.951,0,1,0-2,2Z"/>
    <path id="Tracé_19231" data-name="Tracé 19231" d="M571.3,469.5a2.55,2.55,0,0,1-1.5-2.6V453.6h67.1V468a3.159,3.159,0,0,1-1.4,1.4Q603.4,469.55,571.3,469.5Zm32.1-6h3.7a2,2,0,0,0,2.2-2,2.03,2.03,0,0,0-2.1-2h-7.5a1.918,1.918,0,0,0-2.1,2,1.951,1.951,0,0,0,2.1,1.9C600.9,463.5,602.2,463.5,603.4,463.5Z"/>
    <path id="Tracé_19232" data-name="Tracé 19232" d="M595.6,441.8H583.8V420.6c0-1.6.7-2.3,2.3-2.3h7.3a2.022,2.022,0,0,1,2.2,2.1v21.4Z" fill="none" stroke="#000" stroke-miterlimit="10" stroke-width="1"/>
  </g>
</svg>
