<svg xmlns="http://www.w3.org/2000/svg" width="149.4" height="149.5" viewBox="0 0 149.4 149.5">
  <g id="Groupe_21454" data-name="Groupe 21454" transform="translate(-438 -454.8)">
    <path id="Tracé_19196" data-name="Tracé 19196" d="M438,563.9V469.1c.1-.3.2-.6.3-1a16.052,16.052,0,0,1,16.1-13.3H571a16.123,16.123,0,0,1,16.4,16.5v90.5a17.742,17.742,0,0,1-.9,5.6c-2.3,6.8-8.4,10.9-15.9,10.9H496a3.1,3.1,0,0,0-2.4,1l-22.8,22.8a28.765,28.765,0,0,1-2.7,2.2h-1.5c-2-.7-2.7-2.1-2.6-4.2.1-6.7,0-13.4,0-20.1v-1.7c-3.5,0-6.8.1-10.2,0-6.8-.3-11.6-3.7-14.5-9.8C438.7,567,438.5,565.4,438,563.9Zm32.5,29.2c.7-.7,1.1-1,1.5-1.4,6-6,12-11.9,17.9-18a6.082,6.082,0,0,1,4.9-2c25.1,0,50.3.1,75.4,0,6.7,0,10.8-4.1,10.8-10.7V471.9c0-6.5-4.1-10.6-10.7-10.6H455.2c-6.6,0-10.7,4.1-10.7,10.7v89.1a13.934,13.934,0,0,0,.4,3.5c1.2,4.5,4.9,7.2,9.9,7.2h11.5c3,0,4.1,1.1,4.1,4.2v15.3Z" fill="red"/>
    <path id="Tracé_19197" data-name="Tracé 19197" d="M512.7,552.2h-19c-13.1-.1-23.8-7.6-28.1-19.9-1-2.8-1.2-5.9-1.6-8.8a3.15,3.15,0,0,1,2.6-3.6h.4a3.117,3.117,0,0,1,3.4,3.3,22.793,22.793,0,0,0,5.6,14.7,22.557,22.557,0,0,0,17.6,7.9c12.7,0,25.4.1,38.1,0s22.1-8.9,23.1-21.6c0-.4.1-.9.1-1.3a3.219,3.219,0,0,1,3.3-3.1,3.272,3.272,0,0,1,3.2,3.1v.2a26.526,26.526,0,0,1-.8,6.3c-3.4,13.9-14.7,22.7-29,22.8C525.3,552.3,519,552.2,512.7,552.2Z" fill="red"/>
    <path id="Tracé_19198" data-name="Tracé 19198" d="M496.5,497v12.8a3.087,3.087,0,0,1-1.9,3.1,2.738,2.738,0,0,1-3.3-.5,5.025,5.025,0,0,1-1.2-2.8c-.1-8.4-.1-16.9,0-25.3a3.259,3.259,0,0,1,3.3-3.5c1.8,0,3.1,1.5,3.2,3.6-.1,4.2-.2,8.4-.1,12.6Z" fill="red"/>
    <path id="Tracé_19199" data-name="Tracé 19199" d="M529,497V484.3c0-2.7,2.4-4.3,4.7-3.1,1.4.7,1.8,2.1,1.8,3.6v24.7c0,1.9-.8,3.1-2.2,3.6-2.2.7-4.2-.8-4.2-3.4C529,505.4,529,501.2,529,497Z" fill="red"/>
  </g>
</svg>
