<svg xmlns="http://www.w3.org/2000/svg" width="43.329" height="43.33" viewBox="0 0 43.329 43.33">
  <g id="transparency" opacity="0.53">
    <path id="Tracé_20421" data-name="Tracé 20421" d="M81.588,180.734a.846.846,0,1,0,.846.846A.846.846,0,0,0,81.588,180.734Zm0,0" transform="translate(-73.909 -165.439)"/>
    <path id="Tracé_20422" data-name="Tracé 20422" d="M31.392,25.408a.846.846,0,0,0-.6-.248.855.855,0,0,0-.6.248l-.6.6-1.944-1.944a15.232,15.232,0,1,0-3.591,3.59L26.007,29.6l-.6.6a.847.847,0,0,0,0,1.2l10.7,10.7a4.23,4.23,0,1,0,5.983-5.982ZM27.2,28.4l-1.812-1.812c.211-.189.417-.382.616-.582s.393-.4.582-.615L28.4,27.2ZM5.663,24.81a13.539,13.539,0,1,1,19.147,0,13.531,13.531,0,0,1-19.147,0ZM30.794,27.2,33.187,29.6l-3.59,3.59L27.2,30.793Zm10.1,13.69a2.535,2.535,0,0,1-3.589,0l-6.511-6.51,3.59-3.59,6.51,6.511A2.534,2.534,0,0,1,40.894,40.894Zm0,0" transform="translate(-0.002 -0.001)"/>
    <path id="Tracé_20423" data-name="Tracé 20423" d="M60.323,43.49a11.847,11.847,0,1,0,0,16.754,11.844,11.844,0,0,0,0-16.754Zm-1.2,15.557a10.155,10.155,0,1,1,0-14.36,10.148,10.148,0,0,1,0,14.36Zm0,0" transform="translate(-36.71 -36.631)"/>
    <path id="Tracé_20424" data-name="Tracé 20424" d="M92.915,80.043a8.459,8.459,0,0,0-8.008,5.729.846.846,0,0,0,1.6.544,6.765,6.765,0,0,1,6.406-4.58.846.846,0,0,0,0-1.693Zm0,0" transform="translate(-77.68 -73.269)"/>
  </g>
</svg>
