<svg xmlns="http://www.w3.org/2000/svg" width="64.877" height="88.985" viewBox="0 0 64.877 88.985">
  <g id="Groupe_26197" data-name="Groupe 26197" transform="translate(-389.9 -399.215)">
    <path id="Tracé_19092" data-name="Tracé 19092" d="M390.9,487.2v-10a2.006,2.006,0,0,1,2-2h32.2a2.006,2.006,0,0,1,2,2v10" fill="none" stroke="#000" stroke-linecap="round" stroke-linejoin="round" stroke-miterlimit="10" stroke-width="2"/>
    <path id="Tracé_19093" data-name="Tracé 19093" d="M423.3,475.1v-5.9a13.915,13.915,0,0,0,6-5.9" fill="none" stroke="#000" stroke-linecap="round" stroke-linejoin="round" stroke-miterlimit="10" stroke-width="2"/>
    <path id="Tracé_19094" data-name="Tracé 19094" d="M393.9,475.1V445.3a11.83,11.83,0,0,1,4.3-9.1l3.5-2.9" fill="none" stroke="#000" stroke-linecap="round" stroke-linejoin="round" stroke-miterlimit="10" stroke-width="2"/>
    <path id="Tracé_19096" data-name="Tracé 19096" d="M400.4,449.6l11.3-11.3a4.889,4.889,0,0,1,6.9,0h0a4.889,4.889,0,0,1,0,6.9l-6.4,6.4s5.9,5.9,0,13.8" fill="none" stroke="#000" stroke-linecap="round" stroke-linejoin="round" stroke-miterlimit="10" stroke-width="2"/>
    <path id="Tracé_19095" data-name="Tracé 19095" d="M454.2,444.7l-25.4-43.3a4.4,4.4,0,0,0-6-1.6l-27.1,15.4a4.407,4.407,0,0,0-2.1,2.7,4.72,4.72,0,0,0,.4,3.3L406.8,443l.4-.3,4.4-4.4a4.879,4.879,0,0,1,6.9,6.9l-5.8,5.8,1.6,2.6-.5.3a10.228,10.228,0,0,1,.8,2.1l4.9,8.4a4.406,4.406,0,0,0,3.8,2.2,4.559,4.559,0,0,0,2.2-.6l27.1-15.4a4.407,4.407,0,0,0,2.1-2.7A5.078,5.078,0,0,0,454.2,444.7Z"/>
    <line id="Ligne_1781" data-name="Ligne 1781" x2="3.9" y2="6.7" transform="translate(422.5 409.4)" fill="none" stroke="#fff" stroke-linecap="round" stroke-linejoin="round" stroke-miterlimit="10" stroke-width="2"/>
    <line id="Ligne_1782" data-name="Ligne 1782" x2="7.8" y2="13.4" transform="translate(417.5 412.3)" fill="none" stroke="#fff" stroke-linecap="round" stroke-linejoin="round" stroke-miterlimit="10" stroke-width="2"/>
    <g id="Groupe_21398" data-name="Groupe 21398">
      <g id="Groupe_21397" data-name="Groupe 21397">
        <path id="Tracé_19097" data-name="Tracé 19097" d="M437.9,452.3c-.2,0-.3,0-.4-.1a3.983,3.983,0,0,1-2.5-1.9l-1.5-2.6a4.091,4.091,0,0,1,1.4-5.6L440,439a4.153,4.153,0,0,1,3.1-.5,3.983,3.983,0,0,1,2.5,1.9l1.5,2.6a4.091,4.091,0,0,1-1.4,5.6l-5.1,3.1A3.405,3.405,0,0,1,437.9,452.3Zm4.3-11.5a1.314,1.314,0,0,0-1.2.3l-5.1,3.1a1.933,1.933,0,0,0-.7,2.6l1.5,2.6a2.73,2.73,0,0,0,1.2.9,2.2,2.2,0,0,0,1.4-.2l5.1-3.1a1.933,1.933,0,0,0,.7-2.6l-1.5-2.6a2.73,2.73,0,0,0-1.2-.9C442.4,440.8,442.3,440.8,442.2,440.8Z" fill="#fff"/>
      </g>
    </g>
  </g>
</svg>
