<svg xmlns="http://www.w3.org/2000/svg" width="65.147" height="81.253" viewBox="0 0 65.147 81.253">
  <path id="Tracé_20267" data-name="Tracé 20267" d="M602.4,470.4H585.1a5.02,5.02,0,0,0-.2,1.2c-.2.9-.8,1.4-1.5,1.2a1.258,1.258,0,0,1-1-1.7,40.548,40.548,0,0,0,.6-8.5,27.549,27.549,0,0,0-3.7-13.4,1.5,1.5,0,0,1-.1-1.3,14.776,14.776,0,0,0,1.3-5.5,31.6,31.6,0,0,0-.3-9.7,2.478,2.478,0,0,0-3.9-1.8,2.726,2.726,0,0,0-1.3,1.5c-1.2,3.6-2.1,7.2-3.3,10.7a49.8,49.8,0,0,0-2.3,15.3,2.64,2.64,0,0,1-.7,1.9c-1.5,1.7-3.1,3.4-4.6,5.1a1.417,1.417,0,0,1-1.7.4,1.285,1.285,0,0,1-.6-1.5,2.177,2.177,0,0,1,.5-.8c1.3-1.5,2.7-3,4-4.5a1.489,1.489,0,0,0,.4-.9,58.457,58.457,0,0,1,3.6-19.4c.8-2.2,1.4-4.5,2-6.7a5.35,5.35,0,0,1,6-3.9,1.952,1.952,0,0,1,.7.1v-1c0-5.8.1-11.6,0-17.5a6.061,6.061,0,0,1,6.2-6.3h27.2a6.116,6.116,0,0,1,6.3,6.4c-.1,3.2,0,6.5,0,9.7v.9a5.5,5.5,0,0,1,3.9-1,4.91,4.91,0,0,1,4.1,3.7,4.7,4.7,0,0,1-1.7,5.2c-1.9,1.5-3.8,2.8-5.7,4.2-.3.2-.4.6-.6,1,2.3,0,4.2.7,5.3,2.8a4.819,4.819,0,0,1-.7,5.7,5.182,5.182,0,0,1,.6,7.4c2,2.3,2.4,4.4,1.2,6.4-1.4,2.4-3.8,2.6-6.3,2.6,0,1.9-.1,3.7,0,5.5.3,4.1-3,6.6-6.5,6.6h-6.2a1.02,1.02,0,0,0-.8.5,10.7,10.7,0,0,1-3.9,4.8c-4.1,2.9-8.5,4.8-13.6,4.4a2.64,2.64,0,0,0-2.5,1c-.9,1-1.8,1.9-2.7,2.9a1.354,1.354,0,0,1-2,.2,1.231,1.231,0,0,1,.1-1.9c1.4-1.4,2.7-2.8,4.1-4.3.6-.7,1.3-.6,2.1-.5a13.605,13.605,0,0,0,7.5-.9,43.032,43.032,0,0,0,5.9-3.4A9.031,9.031,0,0,0,602.4,470.4Zm-16.9-7.3v4.7h26.8c2.7,0,4.1-2,3.5-4.7Zm-3.9-52.9h34.3c.2-2.5-.8-3.9-3-4.3a4.868,4.868,0,0,0-1.2-.1H584.9A3.5,3.5,0,0,0,581.6,410.2Zm37,19.3c1.7-1.2,3.2-2.3,4.7-3.5a2.29,2.29,0,0,0,.7-2.6,2.132,2.132,0,0,0-2-1.6,4.8,4.8,0,0,0-3.3,2v.3C618.6,425.9,618.6,427.6,618.6,429.5Zm0,26.3c.9-.1,1.6-.1,2.4-.2a2.4,2.4,0,0,0,1.9-2.8,2.354,2.354,0,0,0-2.3-1.9,12.253,12.253,0,0,0-1.9.2Zm0-12.2v4.6c1.3,0,2.5.1,3.3-1.1a2.479,2.479,0,0,0,.1-2.5C621.2,443.3,620,443.4,618.6,443.6Zm0-2.7a2.62,2.62,0,0,0,2.9-1.3,2.275,2.275,0,0,0-.3-2.6,2.558,2.558,0,0,0-2.6-.8v4.7Z" transform="translate(-561.737 -403.4)"/>
</svg>
