<svg xmlns="http://www.w3.org/2000/svg" width="249.3" height="107.8" viewBox="0 0 249.3 107.8">
  <g id="Groupe_21289" data-name="Groupe 21289" transform="translate(-146.5 -190.6)">
    <g id="Groupe_21287" data-name="Groupe 21287">
      <path id="Tracé_18944" data-name="Tracé 18944" d="M249,270.2h25.5c2.3,0,3.4.7,3.4,2.2s-1.1,2.3-3.5,2.3H222.6c-1.7-.1-2.6-.8-2.6-2.2,0-1.3.9-2.3,2.7-2.3Z" fill="#4e4e4e"/>
      <path id="Tracé_18945" data-name="Tracé 18945" d="M238.9,261.3h16a4.282,4.282,0,0,1,2.2.6,2.175,2.175,0,0,1-.8,3.7,8.752,8.752,0,0,1-1.6.2H222.5c-1.6-.1-2.5-.9-2.5-2.2a2.213,2.213,0,0,1,2.5-2.3Z" fill="#4e4e4e"/>
      <path id="Tracé_18946" data-name="Tracé 18946" d="M294,260.6v24.2c0,5.8-3.3,9.1-9.1,9.1H160c-5.8,0-9.1-3.3-9.1-9.1V204.7c0-5.7,3.3-9.1,9-9.1h57.7v-4.4H159.4c-7.5,0-12.9,5.5-12.9,13v81.1a11.8,11.8,0,0,0,.5,3.7c1.5,5.8,6.5,9.4,12.9,9.4H286.3a12.512,12.512,0,0,0,11.8-9.1,10.926,10.926,0,0,0,.5-1.7v-27Z" fill="#4e4e4e"/>
      <g id="Groupe_21286" data-name="Groupe 21286">
        <path id="Tracé_18947" data-name="Tracé 18947" d="M235.1,191.4h21.3v6.5H244.5V213h9.7v6.6h-9.7v23.7h-9.4Z" fill="#4e4e4e"/>
        <path id="Tracé_18948" data-name="Tracé 18948" d="M261.2,193.1h8.7v7.2h-8.7Zm0,13.1h8.7v37h-8.7Z" fill="#4e4e4e"/>
        <path id="Tracé_18949" data-name="Tracé 18949" d="M276.3,230.6V219.3c0-7.6,2.2-13.7,8.8-13.7a9.813,9.813,0,0,1,6.7,2.9V191.3h8.8v51.9h-8.8v-2.6a9.251,9.251,0,0,1-6.6,3.2C279.3,243.8,276.3,239.9,276.3,230.6Zm15.5,6V212.8a6.15,6.15,0,0,0-3.5-1.2c-2.6,0-3.3,2.6-3.3,5.8v13.8c0,3.7.6,6.5,3.3,6.5A5.542,5.542,0,0,0,291.8,236.6Z" fill="#4e4e4e"/>
        <path id="Tracé_18950" data-name="Tracé 18950" d="M306.8,229.4V220c0-11,3.2-14.4,10.1-14.4,7.8,0,9.6,4.9,9.6,15.3v3.3h-15v6.5c0,7.2,1.5,9.5,5.3,9.5,2.9,0,5.1-1.3,5.1-7.1v-2.6h4.6v2.1c0,6.7-2.4,11.2-9.6,11.2C309.8,243.8,306.8,240.1,306.8,229.4Zm15.1-7.8v-3.1c0-5.8-.5-9.4-5.1-9.4-3.8,0-5.3,2.1-5.3,9.9v2.5h10.4Zm-2.5-31h4.7l-6.3,12.6h-2.4Z" fill="#4e4e4e"/>
        <path id="Tracé_18951" data-name="Tracé 18951" d="M333.5,191.4h4.7v51.9h-4.7Z" fill="#4e4e4e"/>
        <path id="Tracé_18952" data-name="Tracé 18952" d="M346.3,194.7H351V201h-4.7Zm0,11.5H351v37h-4.7Z" fill="#4e4e4e"/>
        <path id="Tracé_18953" data-name="Tracé 18953" d="M361,235.6V209.3h-4.6v-3.1H361V194.7h4.7v11.5h6.2v3.1h-6.2v25.8c0,3.6.5,4.9,3.3,4.9a13.125,13.125,0,0,0,2.7-.3v3.6a18.1,18.1,0,0,1-4,.4C362.2,243.7,361,240.3,361,235.6Z" fill="#4e4e4e"/>
        <path id="Tracé_18954" data-name="Tracé 18954" d="M376.1,229.4V220c0-11,3.2-14.4,10.1-14.4,7.8,0,9.6,4.9,9.6,15.3v3.3h-15v6.5c0,7.2,1.5,9.5,5.3,9.5,2.9,0,5.1-1.3,5.1-7.1v-2.6h4.6v2.1c0,6.7-2.4,11.2-9.6,11.2C379.1,243.8,376.1,240.1,376.1,229.4Zm15-7.8v-3.1c0-5.8-.5-9.4-5.1-9.4-3.8,0-5.3,2.1-5.3,9.9v2.5h10.4Zm-2.4-31h4.7l-6.3,12.6h-2.4Z" fill="#4e4e4e"/>
      </g>
    </g>
    <g id="Groupe_21288" data-name="Groupe 21288">
      <path id="Tracé_18955" data-name="Tracé 18955" d="M203.2,274.8a25.817,25.817,0,0,1-3.9-1.4c-2.1-1-4.1-2.1-6.1-3.2a3.884,3.884,0,0,0-3.9,0c-2,1.1-4.1,2.2-6.1,3.2a8.344,8.344,0,0,1-12.3-8.7c.3-2.2.7-4.4,1.1-6.5a4.477,4.477,0,0,0-1.4-4.6c-1.6-1.5-3.2-3-4.8-4.6a7.932,7.932,0,0,1-2.1-8.7c1.1-3.3,3.5-5.1,7-5.6,2.2-.3,4.4-.7,6.5-1a4.052,4.052,0,0,0,3.4-2.5c.9-2,2-4.1,3-6.1a8.09,8.09,0,0,1,7.6-4.8,7.856,7.856,0,0,1,7.5,4.8c1,2,2,3.9,2.9,5.9a4.388,4.388,0,0,0,3.7,2.7c2.2.3,4.4.6,6.5.9a8.366,8.366,0,0,1,4.8,14.2c-1.6,1.7-3.3,3.3-5,5a3.944,3.944,0,0,0-1.2,4.1c.5,2.3.8,4.6,1.2,7A8.659,8.659,0,0,1,203.2,274.8Zm-27.6-9c-.1,3,2.5,4.8,5,3.6,2.1-1,4.1-2.1,6.1-3.2a8.579,8.579,0,0,1,9,0c2,1.1,4,2.1,6,3.2a3.524,3.524,0,0,0,5.1-3.9c-.4-2.3-.7-4.6-1.2-6.8a8.514,8.514,0,0,1,2.6-8.1c1.6-1.6,3.2-3.2,4.8-4.7a3.474,3.474,0,0,0,1.1-3.8,3.531,3.531,0,0,0-3.1-2.5c-2.4-.3-4.8-.7-7.1-1.1a7.966,7.966,0,0,1-6.3-4.6c-1.1-2.1-2.1-4.2-3.1-6.3a3.687,3.687,0,0,0-3.4-2.3,3.635,3.635,0,0,0-3.4,2.4c-1,2.1-2,4.1-3.1,6.2a8.236,8.236,0,0,1-6.4,4.7c-2.4.4-4.7.8-7.1,1.1a3.443,3.443,0,0,0-3,2.4,3.387,3.387,0,0,0,1,3.8c1.6,1.6,3.2,3.2,4.8,4.7a8.7,8.7,0,0,1,2.6,8.5C176.3,261.3,175.9,263.7,175.6,265.8Z" fill="#4e4e4e"/>
    </g>
  </g>
</svg>
