<svg xmlns="http://www.w3.org/2000/svg" width="45.788" height="43.782" viewBox="0 0 45.788 43.782">
  <g id="Groupe_22470" data-name="Groupe 22470" transform="translate(-932 -1665.347)">
    <g id="challenge" transform="translate(932 1665.347)">
      <path id="Tracé_18177" data-name="Tracé 18177" d="M95.091,35.787c5.879,6.989,6.2,6.581,6.043,15.816.252,4.3,6.518,3.782,9.294,2.408,2.628-1.589,2.261-5.006,2.522-7.626h0a9.517,9.517,0,0,1,1.454-4.427,1.326,1.326,0,0,0-.489-1.854c-2.347-1.24-3.375,4.668-3.358,6.193-.184,2.138.657,5.489-1.884,6.341-5.717,1.419-6.261.539-6.289-5.017a29.146,29.146,0,0,0,4.34-.708.618.618,0,0,0,0-1.19,37.371,37.371,0,0,0-4.176-.719c-.454-4.139-3.963-7.2-6.328-10.4-4.739-6.992-1.341-18.4,7.092-20.6,10.925-3.147,20.732,10.25,14.587,19.744l-.306.465a.751.751,0,0,0,1.173.925,12.8,12.8,0,0,0,3.294-9.359C118-.952,82.014,13.14,95.091,35.787Z" transform="translate(-83.995 -11.216)" fill="#535252"/>
      <path id="Tracé_18178" data-name="Tracé 18178" d="M466.309,158.279a2.24,2.24,0,1,0-4.478.007C461.7,161.489,466.509,161.554,466.309,158.279Z" transform="translate(-420.527 -143.035)" fill="#535252"/>
      <path id="Tracé_18179" data-name="Tracé 18179" d="M439.584,267.355a2.155,2.155,0,0,0,4.082-1.315C442.984,262.975,438.4,264.408,439.584,267.355Z" transform="translate(-400.094 -241.693)" fill="#535252"/>
      <path id="Tracé_18180" data-name="Tracé 18180" d="M435.621,44.641a2.352,2.352,0,0,0,3.127-3.464A2.352,2.352,0,0,0,435.621,44.641Z" transform="translate(-395.935 -37.92)" fill="#535252"/>
      <path id="Tracé_18181" data-name="Tracé 18181" d="M2.98,161.112c2.291-.781,1.878-4.572-.7-4.465C-1.191,156.8-.491,162.135,2.98,161.112Z" transform="translate(0 -143.639)" fill="#535252"/>
      <path id="Tracé_18182" data-name="Tracé 18182" d="M23.093,273.227c.83,2.548,4.958,1.792,4.385-1.008C26.812,269.366,22.131,270.15,23.093,273.227Z" transform="translate(-20.909 -247.266)" fill="#535252"/>
      <path id="Tracé_18183" data-name="Tracé 18183" d="M30.433,51.194c.843,2.264,4.7,1.421,4.317-1.041C34.36,47.073,29.283,48.168,30.433,51.194Z" transform="translate(-27.557 -44.997)" fill="#535252"/>
      <path id="Tracé_18184" data-name="Tracé 18184" d="M230.179,303.476c-.165,3.148,4.64,3.129,4.527-.006C234.631,300.676,230.25,300.669,230.179,303.476Z" transform="translate(-209.59 -275.424)" fill="#535252"/>
      <path id="Tracé_18185" data-name="Tracé 18185" d="M193.591,98.465c-.749-5.866-9.837-9.631-12.469-3.052-.309.939-1.016,3.643.03,4.06a.753.753,0,0,0,.961-.458c.514-1.49,1.006-3.2,2.428-4.041,4.128-1.846,9.962,3.618,5.887,7.433a8.022,8.022,0,0,1-1.758,1.26,3.237,3.237,0,0,0-2.281,3.456.745.745,0,0,0,1.486.1,2.913,2.913,0,0,1,.511-1.669c2.844-1.207,5.719-3.654,5.2-7.089Z" transform="translate(-164.449 -84.721)" fill="#535252"/>
    </g>
  </g>
</svg>
