<svg xmlns="http://www.w3.org/2000/svg" width="31.349" height="39.877" viewBox="0 0 31.349 39.877">
  <g id="delete_3_" data-name="delete (3)" transform="translate(-27.249 -17.255)">
    <path id="Tracé_19659" data-name="Tracé 19659" d="M56.287,21.612H50.21V19.686a2.436,2.436,0,0,0-2.431-2.431H38.07a2.436,2.436,0,0,0-2.433,2.431v1.926H29.56a2.314,2.314,0,0,0-2.311,2.311v2.5a2.314,2.314,0,0,0,2.311,2.311h.03V53.915a3.221,3.221,0,0,0,3.217,3.217H53.04a3.221,3.221,0,0,0,3.217-3.217V28.733h.03A2.314,2.314,0,0,0,58.6,26.422v-2.5a2.313,2.313,0,0,0-2.311-2.311ZM37.13,19.686a.941.941,0,0,1,.94-.938h9.706a.941.941,0,0,1,.938.938v1.926H37.13ZM54.764,53.915a1.726,1.726,0,0,1-1.724,1.724H32.807a1.726,1.726,0,0,1-1.724-1.724V28.733h23.68ZM57.1,26.422a.819.819,0,0,1-.818.818H29.56a.819.819,0,0,1-.818-.818v-2.5a.819.819,0,0,1,.818-.818H56.287a.819.819,0,0,1,.818.818Z" fill="#535252"/>
    <path id="Tracé_19660" data-name="Tracé 19660" d="M63,72.793a.746.746,0,0,0,.746-.746V56.621a.746.746,0,1,0-1.493,0V72.047A.746.746,0,0,0,63,72.793Z" transform="translate(-20.073 -22.148)" fill="#535252"/>
    <path id="Tracé_19661" data-name="Tracé 19661" d="M78.329,72.793a.746.746,0,0,0,.746-.746V56.621a.746.746,0,0,0-1.493,0V72.047A.746.746,0,0,0,78.329,72.793Z" transform="translate(-28.866 -22.148)" fill="#535252"/>
    <path id="Tracé_19662" data-name="Tracé 19662" d="M47.662,72.793a.746.746,0,0,0,.746-.746V56.621a.746.746,0,0,0-1.493,0V72.047A.746.746,0,0,0,47.662,72.793Z" transform="translate(-11.279 -22.148)" fill="#535252"/>
  </g>
</svg>
