<svg xmlns="http://www.w3.org/2000/svg" width="33.137" height="39.718" viewBox="0 0 33.137 39.718">
  <g id="Groupe_26249" data-name="Groupe 26249" transform="translate(1069 -9555)">
    <g id="Groupe_21604" data-name="Groupe 21604" transform="translate(16039 -3710)">
      <g id="Groupe_20205" data-name="Groupe 20205" transform="translate(-3601 -176)">
        <g id="user" transform="translate(-13507 13441)">
          <path id="Tracé_20191" data-name="Tracé 20191" d="M96.6,19.133a9.257,9.257,0,0,0,6.764-2.8,9.257,9.257,0,0,0,2.8-6.764,9.258,9.258,0,0,0-2.8-6.764,9.564,9.564,0,0,0-13.528,0,9.257,9.257,0,0,0-2.8,6.764,9.257,9.257,0,0,0,2.8,6.764A9.26,9.26,0,0,0,96.6,19.133ZM91.48,4.448a7.236,7.236,0,0,1,10.236,0,6.916,6.916,0,0,1,2.121,5.118,6.916,6.916,0,0,1-2.121,5.118,7.236,7.236,0,0,1-10.236,0,6.915,6.915,0,0,1-2.121-5.118A6.915,6.915,0,0,1,91.48,4.448Zm0,0" transform="translate(-80.28 0)" fill="#b7b7b7"/>
          <path id="Tracé_20192" data-name="Tracé 20192" d="M33.057,258.672a23.626,23.626,0,0,0-.322-2.51,19.77,19.77,0,0,0-.617-2.523,12.464,12.464,0,0,0-1.038-2.353,8.872,8.872,0,0,0-1.564-2.038,6.9,6.9,0,0,0-2.247-1.412,7.765,7.765,0,0,0-2.868-.519,2.911,2.911,0,0,0-1.555.659c-.466.3-1.011.655-1.62,1.044a9.281,9.281,0,0,1-2.1.923,8.138,8.138,0,0,1-5.127,0,9.252,9.252,0,0,1-2.094-.923c-.6-.385-1.148-.737-1.621-1.045a2.908,2.908,0,0,0-1.554-.659,7.755,7.755,0,0,0-2.868.52,6.89,6.89,0,0,0-2.247,1.412,8.873,8.873,0,0,0-1.564,2.038,12.487,12.487,0,0,0-1.037,2.354A19.82,19.82,0,0,0,.4,256.163a23.467,23.467,0,0,0-.322,2.511c-.053.758-.079,1.548-.079,2.345a6.6,6.6,0,0,0,1.959,4.99,7.051,7.051,0,0,0,5.048,1.841H26.131a7.051,7.051,0,0,0,5.047-1.841,6.593,6.593,0,0,0,1.959-4.99c0-.8-.027-1.59-.08-2.346Zm-3.484,5.65a4.747,4.747,0,0,1-3.443,1.2H7.006a4.747,4.747,0,0,1-3.443-1.2,4.307,4.307,0,0,1-1.236-3.3c0-.744.025-1.479.074-2.185a21.169,21.169,0,0,1,.291-2.26,17.48,17.48,0,0,1,.543-2.225,10.167,10.167,0,0,1,.844-1.914,6.576,6.576,0,0,1,1.149-1.506A4.575,4.575,0,0,1,6.723,250a5.356,5.356,0,0,1,1.833-.354c.082.043.227.126.462.279.478.312,1.03.668,1.64,1.057a11.533,11.533,0,0,0,2.631,1.175,10.464,10.464,0,0,0,6.558,0,11.545,11.545,0,0,0,2.632-1.176c.624-.4,1.16-.744,1.638-1.056.235-.153.38-.236.462-.279a5.359,5.359,0,0,1,1.834.354,4.582,4.582,0,0,1,1.495.929,6.558,6.558,0,0,1,1.149,1.507,10.133,10.133,0,0,1,.845,1.913,17.441,17.441,0,0,1,.543,2.225,21.347,21.347,0,0,1,.291,2.261h0c.049.7.074,1.437.075,2.184a4.306,4.306,0,0,1-1.236,3.3Zm0,0" transform="translate(0 -228.131)" fill="#b7b7b7"/>
        </g>
      </g>
    </g>
  </g>
</svg>
