<svg xmlns="http://www.w3.org/2000/svg" width="47.29" height="46.941" viewBox="0 0 47.29 46.941">
  <g id="offer" transform="translate(0 -0.346)">
    <path id="Tracé_20380" data-name="Tracé 20380" d="M115.566,20.676l0,.03a5.1,5.1,0,0,0,2.913,4.869l.019.009a3.432,3.432,0,0,1,1.554,1.495l.008.014a5.333,5.333,0,0,0,5.012,2.8l.032,0a3.65,3.65,0,0,1,2.158.561,5.471,5.471,0,0,0,5.8,0,3.65,3.65,0,0,1,2.158-.561l.032,0a5.336,5.336,0,0,0,5.014-2.8l0-.01a3.438,3.438,0,0,1,1.559-1.5l.015-.008a5.1,5.1,0,0,0,2.913-4.87l0-.028a3.266,3.266,0,0,1,.568-2.024,5.022,5.022,0,0,0,0-5.679,3.265,3.265,0,0,1-.569-2.023l0-.03a5.1,5.1,0,0,0-2.915-4.87l-.017-.009a3.428,3.428,0,0,1-1.552-1.49l-.01-.019a5.337,5.337,0,0,0-5.012-2.8l-.032,0a3.647,3.647,0,0,1-2.157-.561h0a5.471,5.471,0,0,0-5.8,0,3.653,3.653,0,0,1-2.158.561l-.032,0a5.334,5.334,0,0,0-5.011,2.8l-.007.013a3.434,3.434,0,0,1-1.556,1.5l-.018.009a5.1,5.1,0,0,0-2.913,4.87l0,.028A3.264,3.264,0,0,1,115,12.974a5.022,5.022,0,0,0,0,5.679,3.263,3.263,0,0,1,.568,2.024Zm.881-6.7a5.034,5.034,0,0,0,.877-3.123l0-.03a3.347,3.347,0,0,1,1.923-3.183l.015-.007a5.184,5.184,0,0,0,2.348-2.26l.009-.016A3.57,3.57,0,0,1,124.976,3.5h.031a5.394,5.394,0,0,0,3.191-.829,3.7,3.7,0,0,1,3.925,0,5.406,5.406,0,0,0,3.19.83l.031,0A3.565,3.565,0,0,1,138.7,5.35l.012.022a5.184,5.184,0,0,0,2.346,2.257l.015.007A3.348,3.348,0,0,1,143,10.821l0,.031a5.033,5.033,0,0,0,.877,3.122,3.252,3.252,0,0,1,0,3.679A5.038,5.038,0,0,0,143,20.777l0,.03a3.349,3.349,0,0,1-1.925,3.186l-.013.006a5.19,5.19,0,0,0-2.35,2.264l-.006.013a3.569,3.569,0,0,1-3.36,1.857l-.031,0a5.4,5.4,0,0,0-3.192.83,3.7,3.7,0,0,1-3.924,0,5.4,5.4,0,0,0-2.892-.838q-.149,0-.3.008h-.031a3.566,3.566,0,0,1-3.361-1.859l-.009-.017A5.178,5.178,0,0,0,119.262,24l-.016-.008a3.347,3.347,0,0,1-1.925-3.185l0-.031a5.038,5.038,0,0,0-.877-3.122,3.252,3.252,0,0,1,0-3.678Zm0,0" transform="translate(-101.558 0)" fill="#707070"/>
    <path id="Tracé_20381" data-name="Tracé 20381" d="M204.919,75.27a.88.88,0,0,0,1.213-.281l10.43-16.709a.881.881,0,1,0-1.494-.932L204.638,74.057A.88.88,0,0,0,204.919,75.27Zm0,0" transform="translate(-181.997 -50.354)" fill="#707070"/>
    <path id="Tracé_20382" data-name="Tracé 20382" d="M185.322,69.586a4.472,4.472,0,1,0-3.888-4.434A4.193,4.193,0,0,0,185.322,69.586Zm0-7.107a2.743,2.743,0,1,1-2.127,2.673A2.45,2.45,0,0,1,185.322,62.48Zm0,0" transform="translate(-161.466 -53.729)" fill="#707070"/>
    <path id="Tracé_20383" data-name="Tracé 20383" d="M267.684,144.949a3.922,3.922,0,1,0,3.888-4.434A4.192,4.192,0,0,0,267.684,144.949Zm6.016,0a2.183,2.183,0,1,1-2.128-2.673A2.45,2.45,0,0,1,273.7,144.949Zm0,0" transform="translate(-238.224 -124.744)" fill="#707070"/>
    <path id="Tracé_20384" data-name="Tracé 20384" d="M47.176,270.8a4.447,4.447,0,0,0-5.873-1.79l-6.9,3.259a5.618,5.618,0,0,0-4.789-2.955l-6.367-.175a6.731,6.731,0,0,1-2.894-.747l-.648-.336a11.427,11.427,0,0,0-10.585.011l.04-1.468a.88.88,0,0,0-.856-.9l-6.982-.192a.88.88,0,0,0-.9.856L0,281.683a.88.88,0,0,0,.856.9l6.982.192h.025a.881.881,0,0,0,.88-.856l.02-.733,1.814-.971a3.112,3.112,0,0,1,2.322-.254L23.729,283l.057.014a11.6,11.6,0,0,0,2.381.245,11.747,11.747,0,0,0,4.907-1.071.868.868,0,0,0,.109-.059l15.7-10.158a.88.88,0,0,0,.288-1.173ZM1.785,280.851l.373-13.56,5.222.144L7.006,281Zm28.5-.231a9.979,9.979,0,0,1-6.1.681l-10.8-3.031a4.867,4.867,0,0,0-3.629.4l-.927.5.248-9.016a9.677,9.677,0,0,1,9.831-.525l.648.336a8.5,8.5,0,0,0,3.655.944l6.367.175a3.861,3.861,0,0,1,3.67,3.077l-9.484-.261a.881.881,0,0,0-.048,1.76l10.466.288H34.2a.881.881,0,0,0,.88-.856,5.618,5.618,0,0,0-.085-1.142l7.073-3.342.021-.01a2.689,2.689,0,0,1,3.042.426Zm0,0" transform="translate(0 -235.978)" fill="#707070"/>
  </g>
</svg>
