<svg xmlns="http://www.w3.org/2000/svg" width="80.7" height="72.5" viewBox="0 0 80.7 72.5">
  <g id="Groupe_21471" data-name="Groupe 21471" transform="translate(-381.8 -398.5)">
    <path id="Tracé_19223" data-name="Tracé 19223" d="M400.6,471h57.8a4.055,4.055,0,0,0,4.1-4.1V428.4a4.055,4.055,0,0,0-4.1-4.1H400.6a4.055,4.055,0,0,0-4.1,4.1v38.5A4.185,4.185,0,0,0,400.6,471Z"/>
    <path id="Tracé_19224" data-name="Tracé 19224" d="M407.5,440.7H413a2.8,2.8,0,0,0,2.8-2.8v-2.8a2.8,2.8,0,0,0-2.8-2.8h-5.5a2.8,2.8,0,0,0-2.8,2.8v2.8A2.86,2.86,0,0,0,407.5,440.7Z" fill="none" stroke="#fff" stroke-linecap="round" stroke-miterlimit="10" stroke-width="2"/>
    <line id="Ligne_1803" data-name="Ligne 1803" x1="34.4" transform="translate(419.2 462)" fill="none" stroke="#fff" stroke-linecap="round" stroke-miterlimit="10" stroke-width="2"/>
    <line id="Ligne_1804" data-name="Ligne 1804" x1="20.6" transform="translate(433 455.2)" fill="none" stroke="#fff" stroke-linecap="round" stroke-miterlimit="10" stroke-width="2"/>
    <line id="Ligne_1805" data-name="Ligne 1805" x1="66" transform="translate(382.8 408.4)" fill="none" stroke="#000" stroke-linecap="round" stroke-miterlimit="10" stroke-width="2"/>
    <line id="Ligne_1806" data-name="Ligne 1806" x1="42.6" transform="translate(382.8 416.7)" fill="none" stroke="#000" stroke-linecap="round" stroke-miterlimit="10" stroke-width="2"/>
    <line id="Ligne_1807" data-name="Ligne 1807" x1="12.4" transform="translate(436.4 416.7)" fill="none" stroke="#000" stroke-linecap="round" stroke-miterlimit="10" stroke-width="2"/>
    <path id="Tracé_19225" data-name="Tracé 19225" d="M448.8,418.7V403.6a4.055,4.055,0,0,0-4.1-4.1H386.9a4.055,4.055,0,0,0-4.1,4.1v38.5a4.055,4.055,0,0,0,4.1,4.1H391" fill="none" stroke="#000" stroke-linecap="round" stroke-miterlimit="10" stroke-width="2"/>
  </g>
</svg>
