<svg xmlns="http://www.w3.org/2000/svg" width="76.5" height="79.478" viewBox="0 0 76.5 79.478">
  <g id="Groupe_21467" data-name="Groupe 21467" transform="translate(-207.4 -393.522)">
    <g id="Groupe_21464" data-name="Groupe 21464">
      <g id="Groupe_21463" data-name="Groupe 21463">
        <path id="Tracé_19213" data-name="Tracé 19213" d="M280.3,455.3h-18a5.121,5.121,0,0,1-5.1-5.1V445a5.121,5.121,0,0,1,5.1-5.1h18a2.647,2.647,0,0,1,2.6,2.6v10.3A2.63,2.63,0,0,1,280.3,455.3Z" fill="none" stroke="#000" stroke-linecap="round" stroke-linejoin="round" stroke-miterlimit="10" stroke-width="2"/>
        <circle id="Ellipse_824" data-name="Ellipse 824" cx="3.2" cy="3.2" r="3.2" transform="translate(263 444.4)" fill="none" stroke="#000" stroke-linecap="round" stroke-linejoin="round" stroke-miterlimit="10" stroke-width="2"/>
        <path id="Tracé_19214" data-name="Tracé 19214" d="M280.3,455.6v11.5a4.908,4.908,0,0,1-4.9,4.9H213.3a4.908,4.908,0,0,1-4.9-4.9V419.5" fill="none" stroke="#000" stroke-linecap="round" stroke-linejoin="round" stroke-miterlimit="10" stroke-width="2"/>
        <path id="Tracé_19215" data-name="Tracé 19215" d="M223.2,412.9h-9.9a4.888,4.888,0,0,0-4.9,4.8h0a4.823,4.823,0,0,0,4.9,4.8h62.1a4.888,4.888,0,0,1,4.9,4.8v12.5" fill="none" stroke="#000" stroke-linecap="round" stroke-linejoin="round" stroke-miterlimit="10" stroke-width="2"/>
        <line id="Ligne_1802" data-name="Ligne 1802" y2="5.2" transform="translate(277.8 445)" fill="none" stroke="#000" stroke-linecap="round" stroke-linejoin="round" stroke-miterlimit="10" stroke-width="2"/>
      </g>
    </g>
    <g id="Groupe_21466" data-name="Groupe 21466">
      <g id="Groupe_21465" data-name="Groupe 21465">
        <path id="Tracé_19216" data-name="Tracé 19216" d="M276.7,421.4a5.939,5.939,0,0,0,.4-.8,3.064,3.064,0,0,0-.3-2.3l-13-23.2a3.1,3.1,0,0,0-4.2-1.2l-44.5,24.9a3.275,3.275,0,0,0-1.6,3.1v-.4h1.7"/>
        <path id="Tracé_19217" data-name="Tracé 19217" d="M275.4,420.2a1.555,1.555,0,0,1-.6.8" fill="#fff"/>
      </g>
      <path id="Tracé_19218" data-name="Tracé 19218" d="M247.7,408.8l8.8-4.9a4.825,4.825,0,0,0,2.2,1.5,3.865,3.865,0,0,0,2.6,0l5.3,9.5a4.5,4.5,0,0,0-1.3,4.9l-2.7,1.5h3.6l.7-.4a.837.837,0,0,0,.3-1.2,2.717,2.717,0,0,1,.9-3.8.837.837,0,0,0,.3-1.2l-6.1-10.9a.664.664,0,0,0-.5-.4.878.878,0,0,0-.7.1,2.748,2.748,0,0,1-2,.2,2.909,2.909,0,0,1-1.7-1.4.664.664,0,0,0-.5-.4.878.878,0,0,0-.7.1l-9.5,5.3a.837.837,0,0,0-.3,1.2A1.091,1.091,0,0,0,247.7,408.8Z" fill="#fff"/>
      <path id="Tracé_19219" data-name="Tracé 19219" d="M222.7,421.3h1.9v-.1l8.7-4.9a.875.875,0,1,0-.9-1.5L223,420a.664.664,0,0,0-.4.5,1.95,1.95,0,0,0,.1.8Z" fill="#fff"/>
      <path id="Tracé_19220" data-name="Tracé 19220" d="M242.2,416.4h0a4.645,4.645,0,0,1,2.3-.6,5.852,5.852,0,0,1,1.3.2,4.415,4.415,0,0,1,2.8,2.2,4.781,4.781,0,0,1,.5,3.1h1.8a6.027,6.027,0,0,0-.8-3.9,6.4,6.4,0,0,0-8.7-2.5,6.5,6.5,0,0,0-3.2,6.4H240A4.493,4.493,0,0,1,242.2,416.4Z" fill="#fff"/>
    </g>
  </g>
</svg>
